<svg xmlns="http://www.w3.org/2000/svg" viewBox="0 0 800 133.34" role="img" aria-label="Logo"><path d="M118.34,33.61c4.4-2.75,8.68-5.42,12.94-8.07-.05-.17-.05-.25-.09-.31-2.99-5.24-5.99-10.48-8.96-15.73-.3-.52-.52-.57-1.01-.26-3.56,2.24-7.14,4.46-10.72,6.67-.3.19-.56.49-.99.47-.14-.37-.07-.75-.07-1.12,0-4.24,0-8.48,0-12.72,0-1.19.05-1.06-.99-1.06-5.62,0-11.25,0-16.87,0-1.11,0-1.08-.18-1.08,1.09v13.81c-.52,0-.78-.3-1.08-.49-2.09-1.32-4.18-2.65-6.27-3.98-1.43-.91-2.88-1.81-4.3-2.74-.35-.23-.58-.24-.78.17-.1.2-.22.4-.33.6-2.72,4.83-5.44,9.66-8.16,14.5-.18.32-.35.65-.58,1.06,4.35,2.7,8.66,5.38,13.06,8.12-2,1.25-3.88,2.42-5.75,3.59-2.19,1.37-4.39,2.74-6.58,4.11-.64.4-.63.41-.25,1.12.04.07.07.13.1.2,2.75,4.95,5.5,9.9,8.25,14.84.15.26.3.52.51.87,4.07-2.58,8.04-5.09,12.15-7.7v1.35c0,4.24,0,8.48,0,12.72,0,.88.01.88.81.9.11,0,.22,0,.33,0h16.65c.18,0,.37-.02.55,0,.51.07.63-.21.6-.67-.02-.23,0-.46,0-.69,0-4.2,0-8.4,0-12.6,0-.28-.12-.6.18-.89,4.06,2.52,8.12,5.04,12.24,7.6,3.19-5.59,6.32-11.08,9.48-16.63-4.35-2.72-8.62-5.38-13-8.12Z" fill="#00b0d3" /><g><path d="M87.55,58.28c0-.28.05-.58-.13-.93-2.29,1.39-4.53,2.74-6.76,4.09-.82.5-1.66.97-2.46,1.49-.37.24-.59.19-.78-.2-.08-.17-.19-.33-.28-.49-4.02-6.91-8.05-13.82-12.07-20.73-.19-.32-.37-.65-.58-1.02,3.66-2.29,7.29-4.55,11.02-6.88-3.73-2.32-7.35-4.59-11.02-6.88,1.28-2.35,2.53-4.62,3.86-7.05-.92-.13-1.63-.25-2.35-.34-4.57-.58-9.15-1.01-13.75-1.23-6.76-.33-13.51-.29-20.26.14-5.8.37-11.56,1.04-17.3,2.01-4.65.78-9.26,1.76-13.81,3.02-.87.24-.88.26-.88,1.22,0,20.67,0,41.33,0,62,0,1.3.12,2.59.37,3.86.67,3.42,2.08,6.5,3.9,9.38,2.97,4.7,6.74,8.62,10.87,12.19,8.53,7.35,18.01,13.11,27.97,18.06.53.26.94.18,1.43-.06,4.33-2.12,8.56-4.45,12.67-6.99,6.46-3.99,12.63-8.4,18.16-13.73,3.29-3.17,6.28-6.61,8.6-10.64,2.21-3.82,3.6-7.89,3.58-12.44-.03-9.28,0-18.56-.01-27.85ZM41.65,29.86c4.07-.79,8.05,1.35,9.73,5.24,1.65,3.81.52,8.27-2.79,10.94-.43.35-.9.66-1.38.92-.38.2-.51.44-.53.88-.02.58.28,1.32-.19,1.72-.39.32-1.03.32-1.56.44-1.32.29-2.63.58-4.1.9,0-1.07-.02-2.02,0-2.97,0-.47-.09-.73-.59-.91-3.56-1.29-5.24-4.01-5.29-8.17-.06-4.4,2.81-8.23,6.69-8.98ZM46.69,108.58c-.01,2.28-1.77,3.71-3.71,3.13-1-.3-1.62-1-1.94-2-.16-.51-.2-1.04-.2-1.58,0-5.15,0-10.3,0-15.46,0-1.12.01-1.17,1.02-1.38,1.57-.34,3.14-.63,4.75-.95.05.22.09.3.09.37,0,5.95.03,11.91,0,17.86ZM52.9,107.79c-.16.55-.61.83-1.09.68-.49-.16-.71-.5-.54-1.05.15-.51,0-.96-.44-1.17-1.27-.61-1.45-1.67-1.13-3.08,1.26.47,2.28,1.21,2.95,2.41.39.69.47,1.44.25,2.2ZM56.22,83.93c-1.32,1.05-2.78,1.79-4.36,2.32-2.54.85-5.17,1.29-7.78,1.83-1.97.41-3.94.81-5.81,1.58-.89.36-1.74.78-2.49,1.41-1.84,1.53-2.29,4.34-.93,6.36.69,1.02,1.48,1.99,2.71,2.37.31.09.39.29.39.59,0,.61,0,1.21,0,1.83-3.05-.47-5.81-3.52-6.15-6.66-.36-3.4.98-5.84,3.74-7.52,1.55-.95,3.24-1.59,4.98-2.03,2.8-.71,5.61-1.36,8.41-2.06,1.31-.33,2.6-.75,3.81-1.39.62-.33,1.22-.7,1.67-1.27.89-1.11.81-2.49-.19-3.49-.9-.89-1.97-1.38-3.17-1.7-1.76-.46-1.4-.18-1.43-1.93-.02-.72,0-1.44,0-2.14.11-.03.15-.06.18-.05,2.58.53,5.01,1.41,6.92,3.39,2.56,2.64,1.66,6.83-.47,8.54ZM40.84,62.46c0-1.21,0-1.23,1.12-1.47,1.53-.34,3.03-.8,4.57-.96.26.3.16.62.16.9,0,6.64,0,13.28,0,19.92,0,.91-.02.87-.89,1.12-1.62.46-3.24.89-4.89,1.22-.15-.39-.08-.77-.08-1.14,0-6.52,0-13.05,0-19.57ZM63.05,54.58c-.58.62-1.33.98-2.12,1.13-1.2.22-2.31.67-3.37,1.27-1.17.66-2.48.61-3.64.27-2.22-.67-4.39-.49-6.6-.12-3.46.58-6.9,1.22-10.19,2.53-1.06.42-2.09.9-3.05,1.54-.31.21-.61.42-.89.66-2.35,1.99-2.17,4.38.47,5.96,1.08.65,2.25,1.09,3.47,1.35.61.13.87.34.82,1.03-.06,1.06-.01,2.13-.01,3.15-.34.14-.6.09-.84.03-2.12-.57-4.22-1.2-6.1-2.44-1.66-1.11-2.89-2.57-3.35-4.62-.59-2.63.12-4.9,1.81-6.88,1.31-1.54,2.96-2.59,4.72-3.46,2.98-1.48,6.14-2.39,9.36-3.09,4.8-1.05,9.63-1.8,14.54-1.73,1.25.02,2.48.11,3.69.45.28.07.57.16.83.29,1.15.56,1.35,1.73.45,2.68Z" fill="#2963a9" /><polygon points="244.93 79.45 229.73 79.45 229.73 67.8 224.28 67.8 224.28 96.01 229.73 96.01 229.73 83.92 244.93 83.92 244.93 96.01 250.39 96.01 250.39 67.8 244.93 67.8 244.93 79.45" fill="#2963a9" /><path d="M278.39,83.52c0,5.8-2.69,8.3-7.43,8.3s-7.47-2.5-7.47-8.3v-15.71h-5.46v15.91c0,8.22,4.83,12.69,12.89,12.69s12.85-4.47,12.85-12.69v-15.91h-5.37v15.71Z" fill="#2963a9" /><polygon points="319.02 67.8 307.56 86.5 295.89 67.8 291.4 67.8 291.4 96 296.61 96 296.61 77.55 306.26 92.78 308.7 92.78 318.35 77.31 318.39 96 323.56 96 323.52 67.8 319.02 67.8" fill="#2963a9" /><path d="M340.56,67.8l-13.22,28.2h5.62l2.9-6.52h14.69l2.94,6.52h5.71l-13.27-28.2h-5.37ZM337.7,85.37l5.5-12.33,5.54,12.33h-11.04Z" fill="#2963a9" /><polygon points="383.63 86.9 367.42 67.8 362.93 67.8 362.93 96.01 368.35 96.01 368.35 76.91 384.55 96.01 389.04 96.01 389.04 67.8 383.63 67.8 383.63 86.9" fill="#2963a9" /><rect x="396.93" y="67.8" width="5.46" height="28.2" fill="#2963a9" /><path d="M413.89,75.58c0-2.14,1.85-3.83,6.38-3.83,2.56,0,5.46.72,8.1,2.22l1.72-4.07c-2.56-1.61-6.26-2.5-9.78-2.5-8.06,0-11.84,3.87-11.84,8.42,0,10.47,17.46,6.49,17.46,12.57,0,2.1-1.93,3.67-6.51,3.67-3.61,0-7.35-1.29-9.69-3.1l-1.89,4.07c2.44,2.01,7.01,3.39,11.58,3.39,8.06,0,11.88-3.87,11.88-8.38,0-10.35-17.42-6.44-17.42-12.45Z" fill="#2963a9" /><polygon points="464.35 67.8 452.89 86.5 441.22 67.8 436.73 67.8 436.73 96 441.94 96 441.94 77.55 451.59 92.78 454.02 92.78 463.68 77.31 463.72 96 468.89 96 468.84 67.8 464.35 67.8" fill="#2963a9" /><path d="M490.55,67.4c-9.11,0-15.83,6.16-15.83,14.5s6.72,14.5,15.83,14.5,15.83-6.12,15.83-14.5-6.72-14.5-15.83-14.5ZM490.55,91.81c-5.92,0-10.33-4.15-10.33-9.91s4.41-9.91,10.33-9.91,10.33,4.15,10.33,9.91-4.41,9.91-10.33,9.91Z" fill="#2963a9" /><polygon points="535.29 89.56 525.51 67.8 519.59 67.8 532.44 96.01 537.81 96.01 550.62 67.8 545.16 67.8 535.29 89.56" fill="#2963a9" /><rect x="553.72" y="67.8" width="5.46" height="28.2" fill="#2963a9" /><polygon points="578.45 89.56 568.67 67.8 562.75 67.8 575.59 96.01 580.97 96.01 593.77 67.8 588.31 67.8 578.45 89.56" fill="#2963a9" /><path d="M610.31,67.4c-9.11,0-15.83,6.16-15.83,14.5s6.72,14.5,15.83,14.5,15.83-6.12,15.83-14.5-6.72-14.5-15.83-14.5ZM610.31,91.81c-5.92,0-10.33-4.15-10.33-9.91s4.41-9.91,10.33-9.91,10.33,4.15,10.33,9.91-4.41,9.91-10.33,9.91Z" fill="#2963a9" /><path d="M652.58,67.8l-13.22,28.2h5.62l2.9-6.52h14.69l2.94,6.52h5.71l-13.27-28.2h-5.37ZM649.73,85.37l5.5-12.33,5.54,12.33h-11.04Z" fill="#2963a9" /><path d="M677.52,89.6c-1.89,0-3.44,1.33-3.44,3.34s1.55,3.34,3.44,3.34,3.44-1.41,3.44-3.34-1.55-3.34-3.44-3.34Z" fill="#2963a9" /><path d="M699.64,71.99c3.06,0,5.71,1.09,7.85,3.3l3.53-3.18c-2.73-3.06-6.84-4.71-11.63-4.71-9.03,0-15.74,6.08-15.74,14.5s6.72,14.5,15.7,14.5c4.83,0,8.94-1.65,11.67-4.71l-3.53-3.22c-2.14,2.26-4.78,3.34-7.85,3.34-6.09,0-10.49-4.11-10.49-9.91s4.41-9.91,10.49-9.91Z" fill="#2963a9" /><path d="M717.98,89.6c-1.89,0-3.44,1.33-3.44,3.34s1.55,3.34,3.44,3.34,3.44-1.41,3.44-3.34-1.55-3.34-3.44-3.34Z" fill="#2963a9" /><path d="M167.21,29.31c0,5.95-2.32,8.33-6.13,8.33s-6.18-2.38-6.18-8.33V10.37h-9.2v19.24c0,10.37,5.67,16.17,15.28,16.17s15.28-5.8,15.28-16.17V10.37h-9.06v18.95Z" fill="#2963a9" /><polygon points="204.89 28.86 190.54 10.37 182.96 10.37 182.96 45.08 191.98 45.08 191.98 26.58 206.33 45.08 213.9 45.08 213.9 10.37 204.89 10.37 204.89 28.86" fill="#2963a9" /><rect x="220.87" y="10.37" width="9.2" height="34.72" fill="#2963a9" /><path d="M270.62,27.72c0-10.66-7.38-17.36-18.16-17.36h-15.38v34.72h15.38c10.78,0,18.16-6.7,18.16-17.36ZM252.09,37.25h-5.81v-19.04h5.81c5.53,0,9.24,3.52,9.24,9.52s-3.72,9.52-9.24,9.52Z" fill="#2963a9" /><path d="M283.49,38.34h13.75l2.56,6.74h9.57l-14.4-34.72h-9.06l-14.36,34.72h9.38l2.56-6.74ZM290.37,19.99l4.18,11.11h-8.36l4.18-11.11Z" fill="#2963a9" /><path d="M345.98,27.72c0-10.66-7.38-17.36-18.16-17.36h-15.38v34.72h15.38c10.78,0,18.16-6.7,18.16-17.36ZM321.64,37.25v-19.04h5.81c5.53,0,9.24,3.52,9.24,9.52s-3.72,9.52-9.24,9.52h-5.81Z" fill="#2963a9" /><path d="M380.63,10.36h-15.38v34.72h15.38c10.78,0,18.16-6.7,18.16-17.36s-7.38-17.36-18.16-17.36ZM380.26,37.25h-5.81v-19.04h5.81c5.53,0,9.24,3.52,9.24,9.52s-3.72,9.52-9.24,9.52Z" fill="#2963a9" /><polygon points="430.2 37.49 413.2 37.49 413.2 31.15 427.65 31.15 427.65 23.81 413.2 23.81 413.2 17.95 429.6 17.95 429.6 10.37 404.1 10.37 404.1 45.08 430.2 45.08 430.2 37.49" fill="#2963a9" /><path d="M483.3,27.72c0-10.66-7.38-17.36-18.16-17.36h-15.38v34.72h15.38c10.78,0,18.16-6.7,18.16-17.36ZM458.96,37.25v-19.04h5.81c5.53,0,9.24,3.52,9.24,9.52s-3.72,9.52-9.24,9.52h-5.81Z" fill="#2963a9" /><rect x="488.6" y="10.37" width="9.2" height="34.72" fill="#2963a9" /><path d="M529.15,45.08h9.57l-14.4-34.72h-9.06l-14.36,34.72h9.38l2.56-6.74h13.75l2.56,6.74ZM515.54,31.1l4.18-11.11,4.18,11.11h-8.36Z" fill="#2963a9" /><path d="M557.59,45.77c4.74,0,9.9-1.54,13.66-4.41v-14.38h-8.13v9.52c-1.63.79-3.25,1.14-4.97,1.14-5.48,0-9.2-4.07-9.2-9.92s3.72-9.92,9.29-9.92c3.11,0,5.67,1.24,7.9,3.87l5.85-5.66c-3.21-4.12-8.13-6.35-14.22-6.35-10.55,0-18.12,7.49-18.12,18.05s7.57,18.05,17.93,18.05Z" fill="#2963a9" /><polygon points="586.58 26.58 600.93 45.08 608.5 45.08 608.5 10.37 599.49 10.37 599.49 28.86 585.14 10.37 577.56 10.37 577.56 45.08 586.58 45.08 586.58 26.58" fill="#2963a9" /><polygon points="642.37 0 633.54 0 627.32 7.54 633.64 7.54 642.37 0" fill="#2963a9" /><path d="M649.94,27.72c0-10.41-7.67-18.05-18.07-18.05s-18.07,7.64-18.07,18.05,7.67,18.05,18.07,18.05,18.07-7.64,18.07-18.05ZM631.87,37.64c-4.93,0-8.78-3.92-8.78-9.92s3.86-9.92,8.78-9.92,8.78,3.92,8.78,9.92-3.86,9.92-8.78,9.92Z" fill="#2963a9" /><path d="M662.63,20.43c0-1.73,1.39-3.12,5.25-3.12,2.83,0,5.9.89,9.01,2.68l2.83-7.29c-3.21-1.98-7.57-3.03-11.8-3.03-9.66,0-14.4,5.06-14.4,11.26,0,12.89,18.49,8.88,18.49,14.38,0,1.69-1.49,2.83-5.3,2.83s-7.85-1.39-10.73-3.42l-3.02,7.24c3.07,2.28,8.36,3.82,13.71,3.82,9.66,0,14.4-5.16,14.4-11.21,0-12.79-18.44-8.83-18.44-14.13Z" fill="#2963a9" /><polygon points="682.23 18.15 692.22 18.15 692.22 45.08 701.42 45.08 701.42 18.15 711.36 18.15 711.36 10.37 682.23 10.37 682.23 18.15" fill="#2963a9" /><rect x="715.26" y="10.37" width="9.2" height="34.72" fill="#2963a9" /><path d="M748.15,17.8c3.11,0,5.62,1.44,7.67,4.07l5.85-5.66c-3.16-4.22-7.99-6.55-13.98-6.55-10.31,0-17.88,7.49-17.88,18.05s7.57,18.05,17.88,18.05c5.99,0,10.83-2.33,13.98-6.55l-5.85-5.66c-2.04,2.63-4.55,4.07-7.67,4.07-5.34,0-9.06-3.97-9.06-9.92s3.71-9.92,9.06-9.92Z" fill="#2963a9" /><path d="M781.93,9.67c-10.41,0-18.07,7.64-18.07,18.05s7.66,18.05,18.07,18.05,18.07-7.64,18.07-18.05-7.67-18.05-18.07-18.05ZM781.93,37.64c-4.92,0-8.78-3.92-8.78-9.92s3.86-9.92,8.78-9.92,8.78,3.92,8.78,9.92-3.86,9.92-8.78,9.92Z" fill="#2963a9" /></g><g><path d="M306.91,122.13c0-.96.77-1.74,2.76-1.74,1.29,0,2.67.39,4.02,1.2l1.03-2.68c-1.35-.89-3.21-1.35-5.03-1.35-4.12,0-6.11,2.16-6.11,4.75,0,5.66,8.43,3.71,8.43,6.56,0,.94-.81,1.63-2.8,1.63-1.74,0-3.57-.65-4.79-1.59l-1.14,2.66c1.29,1.05,3.6,1.76,5.9,1.76,4.14,0,6.15-2.18,6.15-4.73,0-5.6-8.43-3.66-8.43-6.47Z" fill="#ef5834" /><path d="M322.2,117.82l-6.46,15.26h3.44l1.29-3.27h6.73l1.28,3.27h3.52l-6.48-15.26h-3.32ZM321.53,127.12l2.3-5.84,2.3,5.84h-4.6Z" fill="#ef5834" /><polygon points="336.86 117.82 333.51 117.82 333.51 133.07 344.14 133.07 344.14 130.2 336.86 130.2 336.86 117.82" fill="#ef5834" /><path d="M355.53,126.23c0,2.9-1.18,4.1-3.23,4.1s-3.23-1.2-3.23-4.1v-8.41h-3.36v8.54c0,4.49,2.44,6.97,6.57,6.97s6.57-2.48,6.57-6.97v-8.54h-3.31v8.41Z" fill="#ef5834" /><path d="M368.74,117.82h-6.59v15.26h6.59c4.75,0,8-3.01,8-7.63s-3.25-7.63-8-7.63ZM368.58,130.18h-3.06v-9.46h3.06c2.88,0,4.77,1.81,4.77,4.73s-1.89,4.73-4.77,4.73Z" fill="#ef5834" /><path d="M389.69,117.82l-6.46,15.26h3.44l1.29-3.27h6.73l1.28,3.27h3.52l-6.48-15.26h-3.32ZM389.03,127.12l2.3-5.84,2.3,5.84h-4.6Z" fill="#ef5834" /><polygon points="404.35 117.82 401 117.82 401 133.07 411.63 133.07 411.63 130.2 404.35 130.2 404.35 117.82" fill="#ef5834" /><path d="M423.93,117.82l-6.46,15.26h3.44l1.29-3.27h6.73l1.28,3.27h3.52l-6.48-15.26h-3.32ZM423.27,127.12l2.3-5.84,2.3,5.84h-4.6Z" fill="#ef5834" /><polygon points="438.6 117.82 435.24 117.82 435.24 133.07 445.87 133.07 445.87 130.2 438.6 130.2 438.6 117.82" fill="#ef5834" /><path d="M454.63,120.56c1.45,0,2.67.61,3.65,1.79l2.15-2.09c-1.37-1.74-3.46-2.7-5.96-2.7-4.52,0-7.87,3.29-7.87,7.89s3.36,7.89,7.85,7.89c2.53,0,4.62-.96,5.99-2.73l-2.15-2.09c-.97,1.2-2.2,1.81-3.65,1.81-2.71,0-4.64-2-4.64-4.88s1.93-4.88,4.64-4.88Z" fill="#ef5834" /><path d="M466.96,117.82l-6.46,15.26h3.44l1.29-3.27h6.73l1.28,3.27h3.52l-6.48-15.26h-3.32ZM466.3,127.12l2.3-5.84,2.3,5.84h-4.6Z" fill="#ef5834" /><polygon points="488.25 127.08 481.04 117.82 478.27 117.82 478.27 133.07 481.58 133.07 481.58 123.81 488.81 133.07 491.57 133.07 491.57 117.82 488.25 117.82 488.25 127.08" fill="#ef5834" /><path d="M502.13,120.56c1.45,0,2.67.61,3.65,1.79l2.15-2.09c-1.37-1.74-3.46-2.7-5.96-2.7-4.52,0-7.87,3.29-7.87,7.89s3.36,7.89,7.85,7.89c2.53,0,4.62-.96,5.99-2.73l-2.15-2.09c-.97,1.2-2.2,1.81-3.65,1.81-2.71,0-4.64-2-4.64-4.88s1.93-4.88,4.64-4.88Z" fill="#ef5834" /><polygon points="513.53 126.71 520.26 126.71 520.26 123.96 513.53 123.96 513.53 120.65 521.15 120.65 521.15 117.81 510.19 117.81 510.19 133.08 521.42 133.08 521.42 130.24 513.53 130.24 513.53 126.71" fill="#ef5834" /><path d="M536.54,117.82h-6.59v15.26h6.59c4.75,0,8-3.01,8-7.63s-3.25-7.63-8-7.63ZM536.38,130.18h-3.06v-9.46h3.06c2.88,0,4.77,1.81,4.77,4.73s-1.89,4.73-4.77,4.73Z" fill="#ef5834" /><polygon points="550.4 126.71 557.13 126.71 557.13 123.96 550.4 123.96 550.4 120.65 558.02 120.65 558.02 117.81 547.06 117.81 547.06 133.08 558.29 133.08 558.29 130.24 550.4 130.24 550.4 126.71" fill="#ef5834" /><polygon points="565.19 120.69 569.83 120.69 569.83 133.08 573.19 133.08 573.19 120.69 577.83 120.69 577.83 117.82 565.19 117.82 565.19 120.69" fill="#ef5834" /><path d="M586.45,117.55c-4.58,0-7.94,3.36-7.94,7.89s3.36,7.89,7.94,7.89,7.93-3.33,7.93-7.89-3.38-7.89-7.93-7.89ZM586.45,130.33c-2.59,0-4.54-1.98-4.54-4.88s1.95-4.88,4.54-4.88,4.54,1.98,4.54,4.88-1.95,4.88-4.54,4.88Z" fill="#ef5834" /><path d="M603.49,117.82h-6.59v15.26h6.59c4.75,0,8-3.01,8-7.63s-3.25-7.63-8-7.63ZM603.33,130.18h-3.06v-9.46h3.06c2.88,0,4.77,1.81,4.77,4.73s-1.89,4.73-4.77,4.73Z" fill="#ef5834" /><path d="M621.04,117.55c-4.58,0-7.94,3.36-7.94,7.89s3.36,7.89,7.94,7.89,7.93-3.33,7.93-7.89-3.38-7.89-7.93-7.89ZM621.04,130.33c-2.59,0-4.54-1.98-4.54-4.88s1.95-4.88,4.54-4.88,4.54,1.98,4.54,4.88-1.95,4.88-4.54,4.88Z" fill="#ef5834" /><path d="M633.99,122.13c0-.96.77-1.74,2.76-1.74,1.29,0,2.67.39,4.02,1.2l1.03-2.68c-1.35-.89-3.21-1.35-5.03-1.35-4.12,0-6.11,2.16-6.11,4.75,0,5.66,8.43,3.71,8.43,6.56,0,.94-.81,1.63-2.8,1.63-1.74,0-3.57-.65-4.79-1.59l-1.14,2.66c1.29,1.05,3.6,1.76,5.9,1.76,4.14,0,6.15-2.18,6.15-4.73,0-5.6-8.43-3.66-8.43-6.47Z" fill="#ef5834" /></g></svg>