<?xml version="1.0" encoding="UTF-8"?>
<svg id="Capa_1" xmlns="http://www.w3.org/2000/svg" version="1.1" viewBox="0 0 800 133.3">
  <!-- Generator: Adobe Illustrator 29.6.1, SVG Export Plug-In . SVG Version: 2.1.1 Build 9)  -->
  <defs>
    <style>
      .st0 {
        fill: #fff;
      }
    </style>
  </defs>
  <path class="st0" d="M118.3,33.6c4.4-2.8,8.7-5.4,12.9-8.1,0-.2,0-.2,0-.3-3-5.2-6-10.5-9-15.7-.3-.5-.5-.6-1-.3-3.6,2.2-7.1,4.5-10.7,6.7-.3.2-.6.5-1,.5-.1-.4,0-.8,0-1.1V2.5c0-1.2,0-1.1-1-1.1h-16.9c-1.1,0-1.1-.2-1.1,1.1v13.8c-.5,0-.8-.3-1.1-.5-2.1-1.3-4.2-2.6-6.3-4-1.4-.9-2.9-1.8-4.3-2.7-.3-.2-.6-.2-.8.2,0,.2-.2.4-.3.6-2.7,4.8-5.4,9.7-8.2,14.5-.2.3-.3.6-.6,1.1,4.3,2.7,8.7,5.4,13.1,8.1-2,1.2-3.9,2.4-5.8,3.6-2.2,1.4-4.4,2.7-6.6,4.1-.6.4-.6.4-.2,1.1,0,0,0,.1,0,.2,2.8,5,5.5,9.9,8.2,14.8.2.3.3.5.5.9,4.1-2.6,8-5.1,12.2-7.7v14.1c0,.9,0,.9.8.9h17c.2,0,.4,0,.6,0,.5,0,.6-.2.6-.7,0-.2,0-.5,0-.7v-12.6c0-.3-.1-.6.2-.9,4.1,2.5,8.1,5,12.2,7.6,3.2-5.6,6.3-11.1,9.5-16.6-4.3-2.7-8.6-5.4-13-8.1h0Z"/>
  <g>
    <path class="st0" d="M87.6,58.3c0-.3,0-.6-.1-.9-2.3,1.4-4.5,2.7-6.8,4.1-.8.5-1.7,1-2.5,1.5-.4.2-.6.2-.8-.2,0-.2-.2-.3-.3-.5-4-6.9-8.1-13.8-12.1-20.7-.2-.3-.4-.7-.6-1,3.7-2.3,7.3-4.5,11-6.9-3.7-2.3-7.3-4.6-11-6.9,1.3-2.4,2.5-4.6,3.9-7-.9-.1-1.6-.2-2.3-.3-4.6-.6-9.2-1-13.8-1.2-6.8-.3-13.5-.3-20.3.1-5.8.4-11.6,1-17.3,2-4.6.8-9.3,1.8-13.8,3C0,23.5,0,23.5,0,24.5v62c0,1.3.1,2.6.4,3.9.7,3.4,2.1,6.5,3.9,9.4,3,4.7,6.7,8.6,10.9,12.2,8.5,7.3,18,13.1,28,18.1.5.3.9.2,1.4,0,4.3-2.1,8.6-4.4,12.7-7,6.5-4,12.6-8.4,18.2-13.7,3.3-3.2,6.3-6.6,8.6-10.6,2.2-3.8,3.6-7.9,3.6-12.4,0-9.3,0-18.6,0-27.8h0ZM41.7,29.9c4.1-.8,8,1.4,9.7,5.2,1.7,3.8.5,8.3-2.8,10.9-.4.3-.9.7-1.4.9-.4.2-.5.4-.5.9,0,.6.3,1.3-.2,1.7-.4.3-1,.3-1.6.4-1.3.3-2.6.6-4.1.9,0-1.1,0-2,0-3,0-.5,0-.7-.6-.9-3.6-1.3-5.2-4-5.3-8.2,0-4.4,2.8-8.2,6.7-9h0ZM46.7,108.6c0,2.3-1.8,3.7-3.7,3.1-1-.3-1.6-1-1.9-2-.2-.5-.2-1-.2-1.6v-15.5c0-1.1,0-1.2,1-1.4,1.6-.3,3.1-.6,4.8-.9,0,.2,0,.3,0,.4,0,5.9,0,11.9,0,17.9h0ZM52.9,107.8c-.2.6-.6.8-1.1.7-.5-.2-.7-.5-.5-1.1.2-.5,0-1-.4-1.2-1.3-.6-1.5-1.7-1.1-3.1,1.3.5,2.3,1.2,3,2.4.4.7.5,1.4.2,2.2h0ZM56.2,83.9c-1.3,1.1-2.8,1.8-4.4,2.3-2.5.8-5.2,1.3-7.8,1.8-2,.4-3.9.8-5.8,1.6-.9.4-1.7.8-2.5,1.4-1.8,1.5-2.3,4.3-.9,6.4.7,1,1.5,2,2.7,2.4.3,0,.4.3.4.6v1.8c-3-.5-5.8-3.5-6.1-6.7-.4-3.4,1-5.8,3.7-7.5,1.5-.9,3.2-1.6,5-2,2.8-.7,5.6-1.4,8.4-2.1,1.3-.3,2.6-.8,3.8-1.4.6-.3,1.2-.7,1.7-1.3.9-1.1.8-2.5-.2-3.5-.9-.9-2-1.4-3.2-1.7-1.8-.5-1.4-.2-1.4-1.9,0-.7,0-1.4,0-2.1.1,0,.2,0,.2,0,2.6.5,5,1.4,6.9,3.4,2.6,2.6,1.7,6.8-.5,8.5h0ZM40.8,62.5c0-1.2,0-1.2,1.1-1.5,1.5-.3,3-.8,4.6-1,.3.3.2.6.2.9v19.9c0,.9,0,.9-.9,1.1-1.6.5-3.2.9-4.9,1.2-.2-.4,0-.8,0-1.1v-19.6h0ZM63,54.6c-.6.6-1.3,1-2.1,1.1-1.2.2-2.3.7-3.4,1.3-1.2.7-2.5.6-3.6.3-2.2-.7-4.4-.5-6.6-.1-3.5.6-6.9,1.2-10.2,2.5-1.1.4-2.1.9-3,1.5-.3.2-.6.4-.9.7-2.4,2-2.2,4.4.5,6,1.1.7,2.2,1.1,3.5,1.3.6.1.9.3.8,1,0,1.1,0,2.1,0,3.2-.3.1-.6,0-.8,0-2.1-.6-4.2-1.2-6.1-2.4-1.7-1.1-2.9-2.6-3.4-4.6-.6-2.6.1-4.9,1.8-6.9,1.3-1.5,3-2.6,4.7-3.5,3-1.5,6.1-2.4,9.4-3.1,4.8-1,9.6-1.8,14.5-1.7,1.2,0,2.5.1,3.7.5.3,0,.6.2.8.3,1.2.6,1.3,1.7.5,2.7h0Z"/>
    <polygon class="st0" points="244.9 79.4 229.7 79.4 229.7 67.8 224.3 67.8 224.3 96 229.7 96 229.7 83.9 244.9 83.9 244.9 96 250.4 96 250.4 67.8 244.9 67.8 244.9 79.4"/>
    <path class="st0" d="M278.4,83.5c0,5.8-2.7,8.3-7.4,8.3s-7.5-2.5-7.5-8.3v-15.7h-5.5v15.9c0,8.2,4.8,12.7,12.9,12.7s12.9-4.5,12.9-12.7v-15.9h-5.4v15.7h0Z"/>
    <polygon class="st0" points="319 67.8 307.6 86.5 295.9 67.8 291.4 67.8 291.4 96 296.6 96 296.6 77.6 306.3 92.8 308.7 92.8 318.4 77.3 318.4 96 323.6 96 323.5 67.8 319 67.8"/>
    <path class="st0" d="M340.6,67.8l-13.2,28.2h5.6l2.9-6.5h14.7l2.9,6.5h5.7l-13.3-28.2h-5.4ZM337.7,85.4l5.5-12.3,5.5,12.3h-11Z"/>
    <polygon class="st0" points="383.6 86.9 367.4 67.8 362.9 67.8 362.9 96 368.4 96 368.4 76.9 384.5 96 389 96 389 67.8 383.6 67.8 383.6 86.9"/>
    <rect class="st0" x="396.9" y="67.8" width="5.5" height="28.2"/>
    <path class="st0" d="M413.9,75.6c0-2.1,1.9-3.8,6.4-3.8s5.5.7,8.1,2.2l1.7-4.1c-2.6-1.6-6.3-2.5-9.8-2.5-8.1,0-11.8,3.9-11.8,8.4,0,10.5,17.5,6.5,17.5,12.6s-1.9,3.7-6.5,3.7-7.4-1.3-9.7-3.1l-1.9,4.1c2.4,2,7,3.4,11.6,3.4,8.1,0,11.9-3.9,11.9-8.4,0-10.3-17.4-6.4-17.4-12.4h0Z"/>
    <polygon class="st0" points="464.4 67.8 452.9 86.5 441.2 67.8 436.7 67.8 436.7 96 441.9 96 441.9 77.6 451.6 92.8 454 92.8 463.7 77.3 463.7 96 468.9 96 468.8 67.8 464.4 67.8"/>
    <path class="st0" d="M490.5,67.4c-9.1,0-15.8,6.2-15.8,14.5s6.7,14.5,15.8,14.5,15.8-6.1,15.8-14.5-6.7-14.5-15.8-14.5ZM490.5,91.8c-5.9,0-10.3-4.2-10.3-9.9s4.4-9.9,10.3-9.9,10.3,4.2,10.3,9.9-4.4,9.9-10.3,9.9Z"/>
    <polygon class="st0" points="535.3 89.6 525.5 67.8 519.6 67.8 532.4 96 537.8 96 550.6 67.8 545.2 67.8 535.3 89.6"/>
    <rect class="st0" x="553.7" y="67.8" width="5.5" height="28.2"/>
    <polygon class="st0" points="578.5 89.6 568.7 67.8 562.8 67.8 575.6 96 581 96 593.8 67.8 588.3 67.8 578.5 89.6"/>
    <path class="st0" d="M610.3,67.4c-9.1,0-15.8,6.2-15.8,14.5s6.7,14.5,15.8,14.5,15.8-6.1,15.8-14.5-6.7-14.5-15.8-14.5ZM610.3,91.8c-5.9,0-10.3-4.2-10.3-9.9s4.4-9.9,10.3-9.9,10.3,4.2,10.3,9.9-4.4,9.9-10.3,9.9Z"/>
    <path class="st0" d="M652.6,67.8l-13.2,28.2h5.6l2.9-6.5h14.7l2.9,6.5h5.7l-13.3-28.2h-5.4ZM649.7,85.4l5.5-12.3,5.5,12.3h-11Z"/>
    <path class="st0" d="M677.5,89.6c-1.9,0-3.4,1.3-3.4,3.3s1.5,3.3,3.4,3.3,3.4-1.4,3.4-3.3-1.5-3.3-3.4-3.3Z"/>
    <path class="st0" d="M699.6,72c3.1,0,5.7,1.1,7.8,3.3l3.5-3.2c-2.7-3.1-6.8-4.7-11.6-4.7-9,0-15.7,6.1-15.7,14.5s6.7,14.5,15.7,14.5,8.9-1.7,11.7-4.7l-3.5-3.2c-2.1,2.3-4.8,3.3-7.8,3.3-6.1,0-10.5-4.1-10.5-9.9s4.4-9.9,10.5-9.9Z"/>
    <path class="st0" d="M718,89.6c-1.9,0-3.4,1.3-3.4,3.3s1.5,3.3,3.4,3.3,3.4-1.4,3.4-3.3-1.5-3.3-3.4-3.3Z"/>
    <path class="st0" d="M167.2,29.3c0,5.9-2.3,8.3-6.1,8.3s-6.2-2.4-6.2-8.3V10.4h-9.2v19.2c0,10.4,5.7,16.2,15.3,16.2s15.3-5.8,15.3-16.2V10.4h-9.1v18.9h0Z"/>
    <polygon class="st0" points="204.9 28.9 190.5 10.4 183 10.4 183 45.1 192 45.1 192 26.6 206.3 45.1 213.9 45.1 213.9 10.4 204.9 10.4 204.9 28.9"/>
    <rect class="st0" x="220.9" y="10.4" width="9.2" height="34.7"/>
    <path class="st0" d="M270.6,27.7c0-10.7-7.4-17.4-18.2-17.4h-15.4v34.7h15.4c10.8,0,18.2-6.7,18.2-17.4ZM252.1,37.2h-5.8v-19h5.8c5.5,0,9.2,3.5,9.2,9.5s-3.7,9.5-9.2,9.5h0Z"/>
    <path class="st0" d="M283.5,38.3h13.8l2.6,6.7h9.6l-14.4-34.7h-9.1l-14.4,34.7h9.4l2.6-6.7h0ZM290.4,20l4.2,11.1h-8.4s4.2-11.1,4.2-11.1Z"/>
    <path class="st0" d="M346,27.7c0-10.7-7.4-17.4-18.2-17.4h-15.4v34.7h15.4c10.8,0,18.2-6.7,18.2-17.4ZM321.6,37.2v-19h5.8c5.5,0,9.2,3.5,9.2,9.5s-3.7,9.5-9.2,9.5h-5.8Z"/>
    <path class="st0" d="M380.6,10.4h-15.4v34.7h15.4c10.8,0,18.2-6.7,18.2-17.4s-7.4-17.4-18.2-17.4ZM380.3,37.2h-5.8v-19h5.8c5.5,0,9.2,3.5,9.2,9.5s-3.7,9.5-9.2,9.5Z"/>
    <polygon class="st0" points="430.2 37.5 413.2 37.5 413.2 31.1 427.6 31.1 427.6 23.8 413.2 23.8 413.2 18 429.6 18 429.6 10.4 404.1 10.4 404.1 45.1 430.2 45.1 430.2 37.5"/>
    <path class="st0" d="M483.3,27.7c0-10.7-7.4-17.4-18.2-17.4h-15.4v34.7h15.4c10.8,0,18.2-6.7,18.2-17.4ZM459,37.2v-19h5.8c5.5,0,9.2,3.5,9.2,9.5s-3.7,9.5-9.2,9.5h-5.8Z"/>
    <rect class="st0" x="488.6" y="10.4" width="9.2" height="34.7"/>
    <path class="st0" d="M529.2,45.1h9.6l-14.4-34.7h-9.1l-14.4,34.7h9.4l2.6-6.7h13.8l2.6,6.7ZM515.5,31.1l4.2-11.1,4.2,11.1s-8.4,0-8.4,0Z"/>
    <path class="st0" d="M557.6,45.8c4.7,0,9.9-1.5,13.7-4.4v-14.4h-8.1v9.5c-1.6.8-3.2,1.1-5,1.1-5.5,0-9.2-4.1-9.2-9.9s3.7-9.9,9.3-9.9,5.7,1.2,7.9,3.9l5.8-5.7c-3.2-4.1-8.1-6.4-14.2-6.4-10.5,0-18.1,7.5-18.1,18s7.6,18,17.9,18h0Z"/>
    <polygon class="st0" points="586.6 26.6 600.9 45.1 608.5 45.1 608.5 10.4 599.5 10.4 599.5 28.9 585.1 10.4 577.6 10.4 577.6 45.1 586.6 45.1 586.6 26.6"/>
    <polygon class="st0" points="642.4 0 633.5 0 627.3 7.5 633.6 7.5 642.4 0"/>
    <path class="st0" d="M649.9,27.7c0-10.4-7.7-18-18.1-18s-18.1,7.6-18.1,18,7.7,18,18.1,18,18.1-7.6,18.1-18ZM631.9,37.6c-4.9,0-8.8-3.9-8.8-9.9s3.9-9.9,8.8-9.9,8.8,3.9,8.8,9.9-3.9,9.9-8.8,9.9Z"/>
    <path class="st0" d="M662.6,20.4c0-1.7,1.4-3.1,5.2-3.1s5.9.9,9,2.7l2.8-7.3c-3.2-2-7.6-3-11.8-3-9.7,0-14.4,5.1-14.4,11.3,0,12.9,18.5,8.9,18.5,14.4s-1.5,2.8-5.3,2.8-7.8-1.4-10.7-3.4l-3,7.2c3.1,2.3,8.4,3.8,13.7,3.8,9.7,0,14.4-5.2,14.4-11.2,0-12.8-18.4-8.8-18.4-14.1h0Z"/>
    <polygon class="st0" points="682.2 18.1 692.2 18.1 692.2 45.1 701.4 45.1 701.4 18.1 711.4 18.1 711.4 10.4 682.2 10.4 682.2 18.1"/>
    <rect class="st0" x="715.3" y="10.4" width="9.2" height="34.7"/>
    <path class="st0" d="M748.2,17.8c3.1,0,5.6,1.4,7.7,4.1l5.8-5.7c-3.2-4.2-8-6.6-14-6.6-10.3,0-17.9,7.5-17.9,18.1s7.6,18,17.9,18,10.8-2.3,14-6.5l-5.8-5.7c-2,2.6-4.5,4.1-7.7,4.1-5.3,0-9.1-4-9.1-9.9s3.7-9.9,9.1-9.9h0Z"/>
    <path class="st0" d="M781.9,9.7c-10.4,0-18.1,7.6-18.1,18s7.7,18,18.1,18,18.1-7.6,18.1-18-7.7-18-18.1-18ZM781.9,37.6c-4.9,0-8.8-3.9-8.8-9.9s3.9-9.9,8.8-9.9,8.8,3.9,8.8,9.9-3.9,9.9-8.8,9.9Z"/>
  </g>
  <g>
    <path class="st0" d="M306.9,122.1c0-1,.8-1.7,2.8-1.7s2.7.4,4,1.2l1-2.7c-1.4-.9-3.2-1.3-5-1.3-4.1,0-6.1,2.2-6.1,4.8,0,5.7,8.4,3.7,8.4,6.6s-.8,1.6-2.8,1.6-3.6-.6-4.8-1.6l-1.1,2.7c1.3,1.1,3.6,1.8,5.9,1.8,4.1,0,6.1-2.2,6.1-4.7,0-5.6-8.4-3.7-8.4-6.5h0Z"/>
    <path class="st0" d="M322.2,117.8l-6.5,15.3h3.4l1.3-3.3h6.7l1.3,3.3h3.5l-6.5-15.3h-3.3ZM321.5,127.1l2.3-5.8,2.3,5.8h-4.6,0Z"/>
    <polygon class="st0" points="336.9 117.8 333.5 117.8 333.5 133.1 344.1 133.1 344.1 130.2 336.9 130.2 336.9 117.8"/>
    <path class="st0" d="M355.5,126.2c0,2.9-1.2,4.1-3.2,4.1s-3.2-1.2-3.2-4.1v-8.4h-3.4v8.5c0,4.5,2.4,7,6.6,7s6.6-2.5,6.6-7v-8.5h-3.3v8.4h0Z"/>
    <path class="st0" d="M368.7,117.8h-6.6v15.3h6.6c4.8,0,8-3,8-7.6s-3.2-7.6-8-7.6ZM368.6,130.2h-3.1v-9.5h3.1c2.9,0,4.8,1.8,4.8,4.7s-1.9,4.7-4.8,4.7Z"/>
    <path class="st0" d="M389.7,117.8l-6.5,15.3h3.4l1.3-3.3h6.7l1.3,3.3h3.5l-6.5-15.3h-3.3ZM389,127.1l2.3-5.8,2.3,5.8h-4.6,0Z"/>
    <polygon class="st0" points="404.4 117.8 401 117.8 401 133.1 411.6 133.1 411.6 130.2 404.4 130.2 404.4 117.8"/>
    <path class="st0" d="M423.9,117.8l-6.5,15.3h3.4l1.3-3.3h6.7l1.3,3.3h3.5l-6.5-15.3h-3.3ZM423.3,127.1l2.3-5.8,2.3,5.8h-4.6,0Z"/>
    <polygon class="st0" points="438.6 117.8 435.2 117.8 435.2 133.1 445.9 133.1 445.9 130.2 438.6 130.2 438.6 117.8"/>
    <path class="st0" d="M454.6,120.6c1.5,0,2.7.6,3.6,1.8l2.1-2.1c-1.4-1.7-3.5-2.7-6-2.7-4.5,0-7.9,3.3-7.9,7.9s3.4,7.9,7.9,7.9,4.6-1,6-2.7l-2.1-2.1c-1,1.2-2.2,1.8-3.6,1.8-2.7,0-4.6-2-4.6-4.9s1.9-4.9,4.6-4.9h0Z"/>
    <path class="st0" d="M467,117.8l-6.5,15.3h3.4l1.3-3.3h6.7l1.3,3.3h3.5l-6.5-15.3h-3.3ZM466.3,127.1l2.3-5.8,2.3,5.8h-4.6,0Z"/>
    <polygon class="st0" points="488.2 127.1 481 117.8 478.3 117.8 478.3 133.1 481.6 133.1 481.6 123.8 488.8 133.1 491.6 133.1 491.6 117.8 488.2 117.8 488.2 127.1"/>
    <path class="st0" d="M502.1,120.6c1.5,0,2.7.6,3.6,1.8l2.1-2.1c-1.4-1.7-3.5-2.7-6-2.7-4.5,0-7.9,3.3-7.9,7.9s3.4,7.9,7.9,7.9,4.6-1,6-2.7l-2.1-2.1c-1,1.2-2.2,1.8-3.6,1.8-2.7,0-4.6-2-4.6-4.9s1.9-4.9,4.6-4.9h0Z"/>
    <polygon class="st0" points="513.5 126.7 520.3 126.7 520.3 124 513.5 124 513.5 120.7 521.2 120.7 521.2 117.8 510.2 117.8 510.2 133.1 521.4 133.1 521.4 130.2 513.5 130.2 513.5 126.7"/>
    <path class="st0" d="M536.5,117.8h-6.6v15.3h6.6c4.8,0,8-3,8-7.6s-3.2-7.6-8-7.6ZM536.4,130.2h-3.1v-9.5h3.1c2.9,0,4.8,1.8,4.8,4.7s-1.9,4.7-4.8,4.7Z"/>
    <polygon class="st0" points="550.4 126.7 557.1 126.7 557.1 124 550.4 124 550.4 120.7 558 120.7 558 117.8 547.1 117.8 547.1 133.1 558.3 133.1 558.3 130.2 550.4 130.2 550.4 126.7"/>
    <polygon class="st0" points="565.2 120.7 569.8 120.7 569.8 133.1 573.2 133.1 573.2 120.7 577.8 120.7 577.8 117.8 565.2 117.8 565.2 120.7"/>
    <path class="st0" d="M586.5,117.6c-4.6,0-7.9,3.4-7.9,7.9s3.4,7.9,7.9,7.9,7.9-3.3,7.9-7.9-3.4-7.9-7.9-7.9ZM586.5,130.3c-2.6,0-4.5-2-4.5-4.9s2-4.9,4.5-4.9,4.5,2,4.5,4.9-2,4.9-4.5,4.9Z"/>
    <path class="st0" d="M603.5,117.8h-6.6v15.3h6.6c4.8,0,8-3,8-7.6s-3.2-7.6-8-7.6ZM603.3,130.2h-3.1v-9.5h3.1c2.9,0,4.8,1.8,4.8,4.7s-1.9,4.7-4.8,4.7Z"/>
    <path class="st0" d="M621,117.6c-4.6,0-7.9,3.4-7.9,7.9s3.4,7.9,7.9,7.9,7.9-3.3,7.9-7.9-3.4-7.9-7.9-7.9ZM621,130.3c-2.6,0-4.5-2-4.5-4.9s2-4.9,4.5-4.9,4.5,2,4.5,4.9-2,4.9-4.5,4.9Z"/>
    <path class="st0" d="M634,122.1c0-1,.8-1.7,2.8-1.7s2.7.4,4,1.2l1-2.7c-1.3-.9-3.2-1.3-5-1.3-4.1,0-6.1,2.2-6.1,4.8,0,5.7,8.4,3.7,8.4,6.6s-.8,1.6-2.8,1.6-3.6-.6-4.8-1.6l-1.1,2.7c1.3,1.1,3.6,1.8,5.9,1.8,4.1,0,6.2-2.2,6.2-4.7,0-5.6-8.4-3.7-8.4-6.5h0Z"/>
  </g>
</svg>