<?xml version="1.0" encoding="UTF-8"?>
<svg id="Capa_1" xmlns="http://www.w3.org/2000/svg" version="1.1" viewBox="0 0 131.3 133.3">
  <!-- Generator: Adobe Illustrator 29.6.1, SVG Export Plug-In . SVG Version: 2.1.1 Build 9)  -->
  <defs>
    <style>
      .st0 {
        fill: #00b0d3;
      }

      .st1 {
        fill: #2963a9;
      }
    </style>
  </defs>
  <path class="st0" d="M118.3,33.6c4.4-2.8,8.7-5.4,12.9-8.1,0-.2,0-.2,0-.3-3-5.2-6-10.5-9-15.7-.3-.5-.5-.6-1-.3-3.6,2.2-7.1,4.5-10.7,6.7-.3.2-.6.5-1,.5-.1-.4,0-.8,0-1.1V2.5c0-1.2,0-1.1-1-1.1h-16.9c-1.1,0-1.1-.2-1.1,1.1v13.8c-.5,0-.8-.3-1.1-.5-2.1-1.3-4.2-2.6-6.3-4-1.4-.9-2.9-1.8-4.3-2.7-.3-.2-.6-.2-.8.2,0,.2-.2.4-.3.6-2.7,4.8-5.4,9.7-8.2,14.5-.2.3-.3.6-.6,1.1,4.3,2.7,8.7,5.4,13.1,8.1-2,1.2-3.9,2.4-5.8,3.6-2.2,1.4-4.4,2.7-6.6,4.1-.6.4-.6.4-.2,1.1,0,0,0,.1,0,.2,2.8,5,5.5,9.9,8.2,14.8.2.3.3.5.5.9,4.1-2.6,8-5.1,12.2-7.7v14.1c0,.9,0,.9.8.9h17c.2,0,.4,0,.6,0,.5,0,.6-.2.6-.7,0-.2,0-.5,0-.7v-12.6c0-.3-.1-.6.2-.9,4.1,2.5,8.1,5,12.2,7.6,3.2-5.6,6.3-11.1,9.5-16.6-4.3-2.7-8.6-5.4-13-8.1h0Z"/>
  <path class="st1" d="M87.6,58.3c0-.3,0-.6-.1-.9-2.3,1.4-4.5,2.7-6.8,4.1-.8.5-1.7,1-2.5,1.5-.4.2-.6.2-.8-.2,0-.2-.2-.3-.3-.5-4-6.9-8.1-13.8-12.1-20.7-.2-.3-.4-.7-.6-1,3.7-2.3,7.3-4.5,11-6.9-3.7-2.3-7.3-4.6-11-6.9,1.3-2.4,2.5-4.6,3.9-7-.9-.1-1.6-.2-2.3-.3-4.6-.6-9.2-1-13.8-1.2-6.8-.3-13.5-.3-20.3.1-5.8.4-11.6,1-17.3,2-4.6.8-9.3,1.8-13.8,3C0,23.5,0,23.5,0,24.5v62c0,1.3.1,2.6.4,3.9.7,3.4,2.1,6.5,3.9,9.4,3,4.7,6.7,8.6,10.9,12.2,8.5,7.3,18,13.1,28,18.1.5.3.9.2,1.4,0,4.3-2.1,8.6-4.4,12.7-7,6.5-4,12.6-8.4,18.2-13.7,3.3-3.2,6.3-6.6,8.6-10.6,2.2-3.8,3.6-7.9,3.6-12.4,0-9.3,0-18.6,0-27.8h0ZM41.7,29.9c4.1-.8,8,1.4,9.7,5.2,1.7,3.8.5,8.3-2.8,10.9-.4.3-.9.7-1.4.9-.4.2-.5.4-.5.9,0,.6.3,1.3-.2,1.7-.4.3-1,.3-1.6.4-1.3.3-2.6.6-4.1.9,0-1.1,0-2,0-3,0-.5,0-.7-.6-.9-3.6-1.3-5.2-4-5.3-8.2,0-4.4,2.8-8.2,6.7-9h0ZM46.7,108.6c0,2.3-1.8,3.7-3.7,3.1-1-.3-1.6-1-1.9-2-.2-.5-.2-1-.2-1.6v-15.5c0-1.1,0-1.2,1-1.4,1.6-.3,3.1-.6,4.8-.9,0,.2,0,.3,0,.4,0,5.9,0,11.9,0,17.9h0ZM52.9,107.8c-.2.6-.6.8-1.1.7-.5-.2-.7-.5-.5-1.1.2-.5,0-1-.4-1.2-1.3-.6-1.5-1.7-1.1-3.1,1.3.5,2.3,1.2,3,2.4.4.7.5,1.4.2,2.2h0ZM56.2,83.9c-1.3,1.1-2.8,1.8-4.4,2.3-2.5.8-5.2,1.3-7.8,1.8-2,.4-3.9.8-5.8,1.6-.9.4-1.7.8-2.5,1.4-1.8,1.5-2.3,4.3-.9,6.4.7,1,1.5,2,2.7,2.4.3,0,.4.3.4.6v1.8c-3-.5-5.8-3.5-6.1-6.7-.4-3.4,1-5.8,3.7-7.5,1.5-.9,3.2-1.6,5-2,2.8-.7,5.6-1.4,8.4-2.1,1.3-.3,2.6-.8,3.8-1.4.6-.3,1.2-.7,1.7-1.3.9-1.1.8-2.5-.2-3.5-.9-.9-2-1.4-3.2-1.7-1.8-.5-1.4-.2-1.4-1.9,0-.7,0-1.4,0-2.1.1,0,.2,0,.2,0,2.6.5,5,1.4,6.9,3.4,2.6,2.6,1.7,6.8-.5,8.5h0ZM40.8,62.5c0-1.2,0-1.2,1.1-1.5,1.5-.3,3-.8,4.6-1,.3.3.2.6.2.9v19.9c0,.9,0,.9-.9,1.1-1.6.5-3.2.9-4.9,1.2-.2-.4,0-.8,0-1.1v-19.6h0ZM63,54.6c-.6.6-1.3,1-2.1,1.1-1.2.2-2.3.7-3.4,1.3-1.2.7-2.5.6-3.6.3-2.2-.7-4.4-.5-6.6-.1-3.5.6-6.9,1.2-10.2,2.5-1.1.4-2.1.9-3,1.5-.3.2-.6.4-.9.7-2.4,2-2.2,4.4.5,6,1.1.7,2.2,1.1,3.5,1.3.6.1.9.3.8,1,0,1.1,0,2.1,0,3.2-.3.1-.6,0-.8,0-2.1-.6-4.2-1.2-6.1-2.4-1.7-1.1-2.9-2.6-3.4-4.6-.6-2.6.1-4.9,1.8-6.9,1.3-1.5,3-2.6,4.7-3.5,3-1.5,6.1-2.4,9.4-3.1,4.8-1,9.6-1.8,14.5-1.7,1.2,0,2.5.1,3.7.5.3,0,.6.2.8.3,1.2.6,1.3,1.7.5,2.7h0Z"/>
</svg>